Coordinates
version=1
nRows=24
nColumns=38
inDegrees=no

Units are S.I. units (second, meters, Newtons, ...)
If the header above contains a line with 'inDegrees', this indicates whether rotational values are in degrees (yes) or radians (no).

endheader
time	pelvis_tilt	pelvis_list	pelvis_rotation	pelvis_tx	pelvis_ty	pelvis_tz	hip_flexion_r	hip_adduction_r	hip_rotation_r	knee_angle_r	ankle_angle_r	subtalar_angle_r	mtp_angle_r	hip_flexion_l	hip_adduction_l	hip_rotation_l	knee_angle_l	ankle_angle_l	subtalar_angle_l	mtp_angle_l	lumbar_extension	lumbar_bending	lumbar_rotation	arm_flex_r	arm_add_r	arm_rot_r	elbow_flex_r	pro_sup_r	wrist_flex_r	wrist_dev_r	arm_flex_l	arm_add_l	arm_rot_l	elbow_flex_l	pro_sup_l	wrist_flex_l	wrist_dev_l
1.02	1.32489	1.51398	0.418734	0.617867	1.72798	1.00802	0.409798	-0.0332441	0.0597474	0.0108222	-0.256979	0	0	-0.0585241	-0.146284	-0.20598	0.555667	-0.0304731	0	0	-0.128345	0.118347	-0.00728286	-0.27019	-0.312044	0.267111	0.547296	1.07604	0	0	0.476482	-0.462739	1.02748	0.489919	1.25662	0	0
1.03	1.36377	1.51169	0.382403	0.618615	1.73999	1.00691	0.410737	-0.0271977	0.0611149	0.0190934	-0.26966	0	0	-0.0712142	-0.15306	-0.209216	0.557887	-0.0319883	0	0	-0.13088	0.124705	-0.00920769	-0.269818	-0.310649	0.260825	0.545859	1.08189	0	0	0.475734	-0.461979	1.0293	0.481961	1.25536	0	0
1.04	1.42859	1.50976	0.319982	0.619509	1.75207	1.006	0.41717	-0.0195953	0.0463911	0.0521716	-0.283298	0	0	-0.0851826	-0.160919	-0.21556	0.561603	-0.0352098	0	0	-0.134626	0.131286	-0.0121922	-0.269405	-0.308178	0.249867	0.544429	1.0923	0	0	0.473145	-0.460617	1.03044	0.471085	1.24994	0	0
1.05	1.36573	1.50753	0.386044	0.620497	1.76449	1.00436	0.443939	-0.015006	0.0122554	0.123476	-0.228868	0	0	-0.0887985	-0.166163	-0.217505	0.569525	-0.0392264	0	0	-0.128017	0.134801	-0.0213453	-0.26478	-0.308341	0.259963	0.537773	1.08281	0	0	0.461897	-0.463996	1.02343	0.464931	1.24349	0	0
1.06	1.31276	1.50563	0.443252	0.621529	1.77734	1.00274	0.464774	-0.0115899	-0.0142912	0.18905	-0.193912	0	0	-0.0922253	-0.171441	-0.217299	0.578362	-0.0438196	0	0	-0.121477	0.137915	-0.0352915	-0.257588	-0.310811	0.2819	0.530711	1.05905	0	0	0.44324	-0.471775	1.00364	0.465418	1.24351	0	0
1.07	1.29878	1.50451	0.462122	0.622552	1.7905	1.00132	0.476842	-0.00812033	-0.0340671	0.24445	-0.165817	0	0	-0.0976738	-0.177263	-0.215604	0.588307	-0.045676	0	0	-0.118879	0.141932	-0.0517969	-0.252046	-0.313024	0.295065	0.528677	1.03729	0	0	0.419705	-0.483633	0.977802	0.474076	1.23708	0	0
1.08	1.33156	1.50288	0.433851	0.623597	1.80378	1.00045	0.474055	-0.00193039	-0.039043	0.265239	-0.197171	0	0	-0.104769	-0.184984	-0.212689	0.599532	-0.0545063	0	0	-0.117756	0.147718	-0.0549269	-0.252974	-0.3089	0.290165	0.519936	1.049	0	0	0.413919	-0.478762	0.986887	0.455902	1.24046	0	0
1.09	1.35879	1.50042	0.410115	0.624603	1.81693	0.999864	0.474723	0.00280681	-0.0483273	0.28316	-0.233322	0	0	-0.108715	-0.192445	-0.206309	0.615249	-0.0651034	0	0	-0.117404	0.154999	-0.0601938	-0.252229	-0.305892	0.2851	0.512338	1.05953	0	0	0.403557	-0.475673	0.989922	0.441158	1.23921	0	0
1.1	1.38761	1.49749	0.383327	0.625602	1.82998	0.999708	0.475675	0.00798737	-0.0553001	0.298265	-0.261448	0	0	-0.11069	-0.199742	-0.198258	0.634375	-0.0770502	0	0	-0.118997	0.163508	-0.0649091	-0.250626	-0.304785	0.282111	0.506966	1.0658	0	0	0.390622	-0.472894	0.987944	0.428797	1.23714	0	0
1.11	1.39913	1.49496	0.371689	0.626778	1.84311	0.999756	0.480015	0.0134905	-0.0621976	0.323358	-0.28909	0	0	-0.109834	-0.205859	-0.190414	0.656891	-0.0922923	0	0	-0.11959	0.170872	-0.0677748	-0.249471	-0.304277	0.280649	0.502557	1.07131	0	0	0.375896	-0.469524	0.98425	0.416323	1.2346	0	0
1.12	1.29484	1.49205	0.473908	0.628156	1.85647	0.999035	0.504344	0.0143696	-0.0775113	0.38207	-0.287741	0	0	-0.096212	-0.208046	-0.181772	0.687575	-0.115951	0	0	-0.10813	0.173836	-0.0771994	-0.242955	-0.310153	0.315791	0.495556	1.03742	0	0	0.347126	-0.470403	0.954225	0.41078	1.24159	0	0
1.13	1.3078	1.49222	0.458162	0.629591	1.8697	0.999259	0.50981	0.0179352	-0.0822641	0.422382	-0.269593	0	0	-0.0921581	-0.209993	-0.172392	0.7193	-0.1233	0	0	-0.111845	0.178951	-0.0820961	-0.242937	-0.312471	0.316454	0.50023	1.02302	0	0	0.321128	-0.474927	0.928847	0.416778	1.23489	0	0
1.14	1.33745	1.49241	0.424696	0.631113	1.88295	0.999974	0.506986	0.0234031	-0.0796952	0.443192	-0.283655	0	0	-0.0869638	-0.211924	-0.164308	0.753881	-0.141892	0	0	-0.114115	0.183846	-0.0756278	-0.244239	-0.31028	0.318185	0.492138	1.03145	0	0	0.311973	-0.466248	0.941345	0.397483	1.23943	0	0
1.15	1.37597	1.49299	0.382522	0.632622	1.89601	1.00085	0.504185	0.0271744	-0.0833638	0.467984	-0.288122	0	0	-0.0785935	-0.213025	-0.154929	0.793984	-0.163212	0	0	-0.118198	0.188983	-0.070936	-0.245986	-0.308751	0.315904	0.488123	1.03447	0	0	0.29928	-0.459827	0.947645	0.384201	1.23683	0	0
1.16	1.40616	1.49331	0.348688	0.634198	1.90889	1.0017	0.500859	0.0300118	-0.0916681	0.493088	-0.283493	0	0	-0.0657114	-0.213256	-0.143648	0.838008	-0.188614	0	0	-0.121996	0.194072	-0.0663445	-0.248786	-0.307579	0.311262	0.487009	1.03472	0	0	0.285534	-0.454399	0.953947	0.373858	1.22976	0	0
1.17	1.38472	1.49317	0.366985	0.635697	1.92156	1.00208	0.503195	0.0295321	-0.107649	0.524762	-0.222037	0	0	-0.0441154	-0.211823	-0.130966	0.886906	-0.23134	0	0	-0.122027	0.19873	-0.0664911	-0.252674	-0.310027	0.31042	0.493595	1.01768	0	0	0.263968	-0.452203	0.941689	0.372256	1.22324	0	0
1.18	1.4222	1.49334	0.325673	0.63721	1.93401	1.003	0.492299	0.0323048	-0.117517	0.534513	-0.208182	0	0	-0.0273406	-0.210196	-0.118126	0.933082	-0.244311	0	0	-0.129465	0.204564	-0.066942	-0.254287	-0.312071	0.305204	0.500737	1.0097	0	0	0.239296	-0.452868	0.915605	0.379527	1.22367	0	0
1.19	1.44552	1.49263	0.298038	0.63873	1.9464	1.00388	0.479894	0.0363959	-0.124807	0.536549	-0.214835	0	0	-0.00810296	-0.208753	-0.10685	0.977777	-0.263373	0	0	-0.131836	0.209489	-0.0571698	-0.257968	-0.31137	0.305345	0.497269	1.01405	0	0	0.231465	-0.444175	0.937764	0.365387	1.22236	0	0
1.2	1.46733	1.49205	0.272441	0.640162	1.95851	1.00464	0.467979	0.040029	-0.132545	0.539533	-0.214478	0	0	0.0123826	-0.206675	-0.0950593	1.02132	-0.276282	0	0	-0.134948	0.214494	-0.0499549	-0.26297	-0.311435	0.29951	0.499434	1.01376	0	0	0.220442	-0.438177	0.954187	0.357864	1.21608	0	0
1.21	1.49249	1.49222	0.243598	0.641563	1.9704	1.00544	0.455529	0.0434483	-0.137731	0.542952	-0.208076	0	0	0.0323733	-0.203725	-0.0840949	1.06204	-0.275817	0	0	-0.138774	0.218443	-0.042881	-0.268496	-0.311392	0.29032	0.503506	1.01185	0	0	0.209815	-0.433524	0.973948	0.35311	1.20509	0	0
1.22	1.52662	1.4938	0.205211	0.64298	1.98208	1.00638	0.44167	0.0465294	-0.137942	0.546426	-0.19566	0	0	0.0506344	-0.199623	-0.0764375	1.10023	-0.256123	0	0	-0.144043	0.220439	-0.0351813	-0.273501	-0.311053	0.280004	0.5077	1.00978	0	0	0.199933	-0.430067	0.996758	0.350536	1.19115	0	0
1.23	1.57853	1.4973	0.147877	0.644473	1.99356	1.0076	0.425649	0.049417	-0.132558	0.548683	-0.178783	0	0	0.0667795	-0.194139	-0.0751306	1.13554	-0.224241	0	0	-0.151318	0.219777	-0.0261163	-0.277203	-0.30989	0.269331	0.510257	1.00857	0	0	0.1916	-0.427348	1.02499	0.348952	1.17157	0	0
1.24	1.63054	1.50215	0.0903451	0.645884	2.00491	1.00905	0.410357	0.0510371	-0.125808	0.552969	-0.135497	0	0	0.0839271	-0.187052	-0.0779283	1.16823	-0.190361	0	0	-0.163649	0.218357	-0.0361129	-0.268537	-0.313312	0.269876	0.515679	1.00363	0	0	0.152129	-0.427232	0.922272	0.362842	1.24619	0	0
1.25	1.77749	1.50625	-0.0626943	0.6474	2.01599	1.01106	0.38482	0.0549883	-0.114351	0.545255	-0.143252	0	0	0.0954499	-0.182327	-0.086783	1.19711	-0.163019	0	0	-0.172475	0.213968	-0.00851953	-0.277255	-0.308005	0.261774	0.508478	0.991551	0	0	0.175769	-0.422307	1.07645	0.346458	1.13787	0	0
